<svg xmlns="http://www.w3.org/2000/svg" width="71" height="71" viewBox="0 0 71 71">
    <defs>
        <linearGradient id="prefix__a" x1="49.99%" x2="49.99%" y1="3.852%" y2="98.078%">
            <stop offset="0%" stop-color="#AFDDF0"/>
            <stop offset="62%" stop-color="#8CC0E5"/>
            <stop offset="100%" stop-color="#74ADDE"/>
        </linearGradient>
        <linearGradient id="prefix__b" x1="50.011%" x2="50.011%" y1="3.852%" y2="98.082%">
            <stop offset="0%" stop-color="#E8F5FA"/>
            <stop offset="33%" stop-color="#E6F4FA"/>
            <stop offset="53%" stop-color="#DDF1F9"/>
            <stop offset="69%" stop-color="#CFEBF7"/>
            <stop offset="82%" stop-color="#BBE4F5"/>
            <stop offset="95%" stop-color="#A2DAF2"/>
            <stop offset="100%" stop-color="#95D5F1"/>
        </linearGradient>
        <linearGradient id="prefix__c" x1="28.385%" x2="73.552%" y1="49.982%" y2="49.982%">
            <stop offset="0%" stop-color="#BAE2F5"/>
            <stop offset="40%" stop-color="#A6DBF5"/>
            <stop offset="100%" stop-color="#81CEF4"/>
        </linearGradient>
        <linearGradient id="prefix__e" x1="49.635%" x2="49.635%" y1="3.614%" y2="102.409%">
            <stop offset="0%" stop-color="#71C2CC"/>
            <stop offset="9%" stop-color="#60A5AD"/>
            <stop offset="26%" stop-color="#437379"/>
            <stop offset="43%" stop-color="#2B4A4E"/>
            <stop offset="59%" stop-color="#192A2C"/>
            <stop offset="74%" stop-color="#0C1414"/>
            <stop offset="88%" stop-color="#040606"/>
            <stop offset="100%" stop-color="#010101"/>
        </linearGradient>
        <linearGradient id="prefix__f" x1="50%" x2="50%" y1="2.654%" y2="87.367%">
            <stop offset="0%" stop-color="#EF7835"/>
            <stop offset="1%" stop-color="#EB7634"/>
            <stop offset="17%" stop-color="#AE5827"/>
            <stop offset="32%" stop-color="#793D1B"/>
            <stop offset="48%" stop-color="#4E2812"/>
            <stop offset="62%" stop-color="#2D170B"/>
            <stop offset="76%" stop-color="#140B05"/>
            <stop offset="89%" stop-color="#060302"/>
            <stop offset="100%" stop-color="#010101"/>
        </linearGradient>
        <linearGradient id="prefix__g" x1="0%" x2="100%" y1="50%" y2="50%">
            <stop offset="0%" stop-color="#EB611D"/>
            <stop offset="26%" stop-color="#EA5E1D"/>
            <stop offset="47%" stop-color="#E6531C"/>
            <stop offset="68%" stop-color="#E0421B"/>
            <stop offset="87%" stop-color="#D72919"/>
            <stop offset="100%" stop-color="#CF1417"/>
        </linearGradient>
        <radialGradient id="prefix__d" cx="25.525%" cy="80.637%" r="99.529%" fx="25.525%" fy="80.637%" gradientTransform="matrix(1 0 0 .3482 0 .526)">
            <stop offset="0%" stop-color="#EB611D"/>
            <stop offset="26%" stop-color="#EA5E1D"/>
            <stop offset="47%" stop-color="#E6531C"/>
            <stop offset="68%" stop-color="#E0421B"/>
            <stop offset="87%" stop-color="#D72919"/>
            <stop offset="100%" stop-color="#CF1417"/>
        </radialGradient>
    </defs>
    <g fill="none" fill-rule="evenodd">
        <circle cx="35.617" cy="35.361" r="35.312" fill="#A41F26" fill-rule="nonzero"/>
        <path fill="#F7BA95" d="M42.122 45.616L42.013 46.928 43.785 47.033 43.937 45.857z"/>
        <path fill="#4D408D" d="M42.047 46.511c-.586.185-.617 1.649-.247 2.075l6.073-.31c.095-.57-.176-1.14-.68-1.425-.53-.29-2.086-.37-3.327-.386l-.022.043c-.33.176-.704.256-1.077.232-.593-.047-.72-.235-.726-.241"/>
        <path fill="#EDEDED" d="M46.304 48.366l1.562-.077c.115-.29.186-1.034-.441-1.377-.305-.12-.621-.205-.945-.256-.217.336-.324.73-.308 1.13.01.198.051.394.12.58"/>
        <path fill="#EDEDED" d="M41.621 48.187c.03.145.09.281.18.399l6.072-.31c.039-.135.044-.278.015-.416l-6.267.327z"/>
        <path fill="#4D408D" d="M33.157 31.873s-.235 3.278 1.04 4.176c1.275.899 8.264.31 8.89.167-.37 1.374-.613 2.78-.725 4.198-.271 2.757-.438 5.248-.438 5.248.398.361 1.664.531 2.253.309 0 0 2.245-9.49 2.115-10.894-.13-1.404-.926-1.87-2.584-2.031-1.657-.16-7.183-.729-7.183-.729l-3.368-.444z"/>
        <path fill="#EDEDED" d="M46.885 23.029c-.309-.056-.636.484-.75 1.21-.115.725.03 1.358.327 1.414.296.055.636-.482.75-1.207.114-.726-.031-1.359-.327-1.417"/>
        <path fill="#C6C6C6" d="M46.486 25.656c.29.027.618-.503.726-1.21.099-.618 0-1.152-.195-1.343-.293-.028-.617.503-.728 1.21-.099.617 0 1.148.197 1.343"/>
        <path fill="#C6C6C6" d="M46.672 24.34s1.12.618 1.234.927c.132.625.196 1.262.192 1.901-.05.093-.213.019-.253 0-.04-.018-.043-1.234-.176-1.673-.133-.438-1.096-.926-1.096-.926l.099-.228z"/>
        <path fill="#FC0" d="M50.203 26.196h.037c.655 1.22.727 2.67.195 3.948-.062.15-.132.296-.21.438 1.806-.308 1.444-4.167-.022-4.392"/>
        <path fill="#3E2823" d="M23.908 46.57c-1.43 0-2.59 1.16-2.59 2.59s1.16 2.59 2.59 2.59 2.59-1.16 2.59-2.59-1.16-2.59-2.59-2.59m0-2.615c-2.106 0-4.005 1.27-4.811 3.216-.806 1.946-.36 4.186 1.13 5.675 1.49 1.49 3.73 1.934 5.677 1.127 1.945-.807 3.213-2.707 3.212-4.813 0-1.381-.549-2.705-1.525-3.682-.977-.976-2.302-1.524-3.683-1.523z"/>
        <path fill="#B3B1B1" d="M26.196 47.94l-1.05.343c-.196-.273-.475-.474-.796-.574v-1.096c.79.135 1.474.627 1.852 1.334m-.426 3.019l-.648-.892c.2-.261.308-.58.309-.908v-.037l1.046-.343c.019.126.028.253.028.38-.005.671-.27 1.315-.741 1.793l.006.007zm-3.01.521l.649-.892c.324.115.678.115 1.003 0l.645.892c-.724.358-1.573.358-2.297 0zm-1.42-2.713l1.05.343v.037c.002.328.11.646.309.907l-.649.892c-.467-.482-.727-1.128-.725-1.8-.003-.126.002-.253.015-.38zm2.121-2.161v1.102c-.32.099-.6.3-.793.574l-1.05-.34c.374-.704 1.052-1.197 1.837-1.336h.006zm.441-.861c-1.382 0-2.628.833-3.157 2.11-.529 1.277-.236 2.747.742 3.725.978.977 2.449 1.268 3.725.738 1.277-.53 2.109-1.777 2.108-3.159.001-.907-.358-1.778-1-2.42-.64-.641-1.51-1.001-2.418-1v.006z"/>
        <path fill="#614438" d="M23.908 48.576c-.235 0-.448.142-.539.36-.09.219-.04.47.127.636.167.167.418.217.636.127.218-.09.36-.303.36-.54 0-.321-.261-.583-.584-.583"/>
        <path fill="#3E2823" d="M56.8 46.57c-1.048 0-1.992.63-2.393 1.599-.4.967-.18 2.081.562 2.822.74.74 1.854.962 2.822.562.968-.401 1.599-1.346 1.599-2.393 0-.687-.273-1.346-.759-1.832-.485-.485-1.144-.758-1.831-.758m0-2.615c-2.107-.001-4.007 1.267-4.814 3.214-.807 1.946-.361 4.186 1.129 5.676 1.49 1.49 3.73 1.935 5.676 1.129 1.947-.807 3.215-2.707 3.214-4.814-.002-2.874-2.331-5.203-5.205-5.205z"/>
        <path fill="#B3B1B1" d="M59.078 47.94l-1.05.343c-.194-.273-.472-.475-.793-.574v-1.096c.79.134 1.474.627 1.852 1.334m-.435 3.012l-.648-.892c.198-.26.306-.58.309-.907v-.037l1.046-.343c.019.126.028.253.028.38-.001.672-.265 1.318-.735 1.8zm-3.01.522l.649-.892c.323.115.676.115 1 0l.648.892c-.724.358-1.573.358-2.297 0zm-1.41-2.707l1.046.343v.037c.001.328.11.647.309.907l-.648.892c-.56-.578-.819-1.383-.701-2.18h-.006zm2.12-2.161v1.102c-.32.099-.599.3-.793.574l-1.05-.34c.375-.706 1.056-1.2 1.843-1.336zm.442-.861c-1.385-.006-2.636.823-3.17 2.1-.532 1.278-.242 2.751.736 3.731s2.45 1.273 3.729.742c1.279-.531 2.11-1.78 2.107-3.165-.002-1.878-1.518-3.403-3.396-3.414l-.006.006z"/>
        <path fill="#614438" d="M56.8 48.576c-.236 0-.449.142-.539.36-.09.219-.04.47.126.636.167.167.418.217.636.127.218-.09.36-.303.36-.54 0-.321-.26-.583-.583-.583"/>
        <path fill="#FC0" d="M22.127 39.621h-2.256s-.797 1.544-.618 1.942c.18.398.926.364.926.364l1.948-2.306z"/>
        <path fill="#B3B1B1" d="M23.541 39.248h-2.858s-1.278 1.947-1.288 2.716c-.009.769.815.815.815.815l3.331-3.531z"/>
        <path fill="#F7C8AB" d="M37.297 19.275l-.908 1.543c.015 0 1.698 1.343 1.828 1.374l.814-1.917-1.734-1z"/>
        <path fill="#F7C8AB" d="M42.526 16.176c.157 3.565-.803 5.54-5.143 3.756l.337-2.864 1.484-1.216 3.322.324z"/>
        <path fill="#2F2F2E" d="M43.878 15.006c-1.352 1.17-4.717-2.359-5.807-.534-.695.207-1.267.706-1.568 1.367-.42 1.059.54 4.05.54 4.05l1.235-1.179c-.926-.926.392-1.7.735-.593l.617-1.383c1.362.534 4.267.649 4.236-1.728M38.852 19.565c.183.547.405 1.047 1.136 1.13-.097.082-.22.128-.348.13-.534-.026-.985-.405-1.102-.926l.314-.334z"/>
        <path fill="#F39200" d="M42.865 15.219c-2.778.03-3.704 1.389-3.633 3.824.028.927-.284.96-1.12.89-2.884-.238-4.557-5.23-1.121-7.233 2.905-1.692 6.371.518 5.865 2.519"/>
        <path fill="#C51315" d="M42.865 15.219c-2.778.03-3.704 1.389-3.633 3.824.028.927-.284.96-1.12.89-.363-.032-.714-.137-1.035-.31.636.096 1.343.137 1.618-.104.537-.479-.111-2.325 1.198-3.705.883-.926 2.232-.956 3.016-.87-.007.097-.022.193-.044.287"/>
        <path fill="#2F2F2E" d="M37.991 16.886c.339 0 .644.204.773.517.13.313.058.673-.182.912s-.6.31-.913.18c-.313-.131-.516-.437-.514-.776.003-.46.376-.832.836-.833"/>
        <path fill="#F7BA95" d="M47.11 28.202c-.656-.057-1.317-.038-1.97.056-.981.154-5.12-1.031-5.531-1.155-.41-.123-1.43-2.645-1.43-2.645l-1.734.972s1.611 2.553 2.275 2.951c.663.399 5.303.927 5.865.97.828-.033 1.653-.119 2.47-.256l.055-.893z"/>
        <path fill="#F9B233" d="M46.872 32.774s-1.484-2.704-1.57-3.522c-.087-.818 2.546-1.618 2.546-1.618l1.772 3.81-1.544 1.596-1.204-.266z"/>
        <path fill="#3E2823" d="M20.352 43.613s-.71 1.015-1.852 2.722c-.56.779-1.05 1.605-1.463 2.47 0 0 .599.376 1.818-.865 1.22-1.24 4.053-2.99 4.053-2.99l-2.556-1.337z"/>
        <path fill="#F9B233" d="M54.33 41.674c2.353-.216 6.193 1.503 7.313 4.167-5.865-.858-6.362.309-9.727 2.593-.706.445-1.57.566-2.37.33l4.784-7.09z"/>
        <path fill="#F39200" d="M54.33 41.674c.81-.046 1.62.059 2.39.309-.582.329-1.03.852-1.263 1.478-.267.93-.405 1.894-.407 2.862-.926.497-1.812 1.235-3.134 2.124-.706.445-1.57.565-2.37.33l4.784-7.103z"/>
        <path fill="#3E2823" d="M49.62 31.444l-2.748 1.33s-.244.445.18 1.507c.422 1.062 1.438 2.901 1.728 5.118.29 2.216.287 7.51-2.284 7.6-2.572.09-6.094.09-6.094.09-.445-.038-.88-.157-1.281-.352-.314-.165-.57-.421-.735-.735l-9.239-2.47-10.702.111.046 1.118s3.522.886 6.535 1.485c3.013.599 3.945.753 3.945.753l.262.982s6.174 1.611 12.101 1.833c5.927.222 7.718-.444 7.718-.444s2.812-1.927 3.704-5.118c.892-3.192 1.66-4.233.266-6.98-1.396-2.747-3.415-5.828-3.415-5.828"/>
        <path fill="#F7C8AB" d="M40.862 45.69L40.692 46.993 42.452 47.187 42.665 46.02z"/>
        <path fill="#484B98" d="M40.748 46.58c-.596.153-.685 1.617-.352 2.058h6.078c.127-.569-.12-1.155-.617-1.46-.516-.309-2.065-.472-3.303-.55l-.025.04c-.34.16-.717.222-1.09.18-.586-.078-.704-.272-.71-.278"/>
        <path fill="#FFF" d="M44.915 48.647h1.562c.237-.493.08-1.084-.37-1.395-.296-.137-.607-.24-.926-.309-.347.496-.444 1.124-.263 1.701"/>
        <path fill="#FFF" d="M40.235 48.234c.024.144.078.282.158.404h6.078c.048-.132.061-.275.037-.414l-6.273.01z"/>
        <path fill="#F9B233" d="M49.62 31.444s-.531.756.046 2.04c.577 1.284 3.73 5.896 2.933 8.381-.797 2.485-2.226 6.73-4.884 7.573-2.658.842-14.533-.664-14.533-.664s-.488 2.306 2.778 2.35c3.266.042 11.422.71 13.78-.976 2.359-1.686 6.251-8.375 6.115-9.792-.135-1.417-6.248-8.91-6.248-8.91"/>
        <path fill="#F39200" d="M33.34 49.885c.27.596.962 1.213 2.645 1.235 2.827.04 9.276.537 12.508-.404-4.04.345-11.14-.025-15.154-.83"/>
        <path fill="#F9B233" d="M39.513 38.979H22.368c-.793.185-3.507 2.865-3.923 4.652 3.62.91 15.169 2.633 19.941 2.37-2.642-3.102 1.173-4.963 1.13-7.022"/>
        <path fill="#F39200" d="M34.722 45.937l1.043.056c.218-.563.332-1.16.337-1.763 0-3.615-4.38-5.776-9.78-4.828-2.469.417-4.793 1.447-6.76 2.997 1.774-1.25 3.804-2.088 5.942-2.454 5.202-.926 9.422 1.17 9.422 4.65-.002.454-.071.907-.204 1.342M30.604 24.872h-9.921c-1.504.003-2.723 1.221-2.726 2.725v8.261c.003 1.505 1.221 2.724 2.726 2.729h9.909l.012-13.715z"/>
        <path fill="#C51315" fill-rule="nonzero" d="M30.163 24.872H31.163V38.584H30.163z"/>
        <path fill="#F08262" d="M30.604 24.872h-9.921c-.486 0-.962.13-1.38.376h11.289l.012-.376z"/>
        <path fill="#C51315" d="M18.744 37.757c.508.526 1.207.825 1.939.83h9.909v-.827l-11.848-.003z"/>
        <path fill="#C51315" fill-rule="nonzero" d="M17.969 28.341H30.607V29.341H17.969z"/>
        <path fill="#E30613" fill-rule="nonzero" d="M22.368 38.337H39.519V39.337H22.368z"/>
        <path fill="#C51315" fill-rule="nonzero" d="M22.368 38.8H39.519V39.8H22.368z"/>
        <path fill="#3E2823" d="M39.513 38.337h-8.288v-2.161c-.005-.219.08-.43.236-.584.155-.155.366-.24.585-.234l5.976.398c.814.026 1.468.68 1.494 1.494l-.003 1.087z"/>
        <path fill="#372621" d="M32.012 35.343h.034l5.976.398c.814.025 1.468.68 1.494 1.494v.173c-2.69.84-5.624.032-7.504-2.069"/>
        <path fill="#616365" d="M23.878 47.589c-.868 0-1.572.703-1.572 1.57 0 .869.704 1.572 1.572 1.572l7.347.309h.15c1.005-.041 1.799-.867 1.799-1.873 0-1.005-.794-1.83-1.798-1.872h-.151l-7.347.309v-.015z"/>
        <path fill="#484B98" d="M32.598 31.512s-.398 3.263.83 4.223c1.23.96 8.24.713 8.873.617-.436 1.355-.746 2.747-.927 4.158-.407 2.738-.7 5.23-.7 5.23.38.382 1.633.617 2.235.413 0 0 2.716-9.366 2.658-10.773-.06-1.408-.84-1.914-2.47-2.161-1.63-.247-7.137-1.09-7.137-1.09l-3.362-.617z"/>
        <path fill="#E5E7EF" d="M50.351 26.06c-.186-.072-.381-.12-.58-.142h.043c.773 1.332.906 2.94.361 4.38-.063.168-.135.332-.216.491.249-.049.488-.135.71-.256.007-.014.012-.028.016-.043.536-1.413.483-2.982-.145-4.356-.062-.029-.125-.054-.189-.077"/>
        <path fill="#F9B233" d="M49.814 25.93c-1.249-.177-2.43.616-2.74 1.838-.31 1.223.35 2.483 1.533 2.923.431.164.9.203 1.352.11.081-.159.153-.323.216-.49.545-1.44.412-3.05-.36-4.38"/>
        <path fill="#F39200" d="M47.067 27.847c-.26 1.197.397 2.403 1.543 2.834.431.165.9.203 1.352.111.081-.16.153-.323.216-.49.188-.495.297-1.016.325-1.544-.708-.025-1.41-.138-2.09-.336-.47-.142-.92-.339-1.343-.587"/>
        <path fill="#3E2823" d="M46.585 29.462c-.066 0-.132.012-.194.037l-.065.028-1.516.771.454.985 1.544-.784c.232-.106.359-.36.304-.61-.055-.25-.277-.428-.533-.427"/>
        <path fill="#F39200" d="M35.809 20.306c-1.114 1.08-1.886 2.462-2.223 3.976-.53 2.707-1.923 8.495-1.923 8.495 1.258.29 2.546.431 3.837.42 2.247 0 2.855-1.012 2.855-1.012s.467-4.94.692-7.236c.225-2.297-.753-3.235-.753-3.235l-1.698-1.494c-.426-.374-.349-.35-.784.086"/>
        <path fill="#C51315" d="M36.04 20.065l-.46.33c.846.704 2.698 1.77 3.624 2.9.143-.592-.028-1.215-.453-1.65-.698-.567-1.437-1.083-2.21-1.543-.288-.179-.238-.216-.498-.03"/>
        <path fill="#F7C8AB" d="M38.609 27.301c.132.099 5.056 2.016 5.865 2.01.682 0 .796-.108 1.154-.047.448.03.882.171 1.26.414.528.346.358.83.308.849-.049.018-.058-.222-.213-.426-.154-.204-.731-.324-.731-.324s.441.13.568.392c.126.262.025.806-.074.796-.099-.009-.031-.345-.108-.51-.159-.186-.346-.347-.556-.474.192.162.333.376.404.617.034.29-.166.651-.234.568-.068-.083.046-.5-.028-.676-.074-.176-.383-.266-.383-.266.142.069.253.19.309.337.043.22.015.448-.08.651-.074.108-.059-.25-.195-.512-.136-.263-.568-.327-.568-.327-.201-.026-.403.043-.546.188-.1.113-.242.177-.392.177-.15 0-.293-.064-.392-.177-.355-.264-.764-.444-1.198-.528-.367-.077-4.525-.7-5.087-1.01-.562-.308-1.852-3.05-1.852-3.05l1.913-.672.856 2z"/>
        <path fill="#3E2823" d="M45.07 30.23c-.22 0-.42.13-.505.334-.085.203-.039.437.116.593.155.156.39.203.593.12.203-.085.336-.283.336-.503 0-.299-.242-.542-.54-.543"/>
        <path fill="#C51315" d="M36.565 22.118c-2.47-.2-1.05 4.63-.864 5.14l2.815-.8c-.096-1.117-.577-4.229-1.951-4.34"/>
        <path fill="#F08262" d="M22.34 41.251c3.705-1.68 9.879-1.852 11.144 1.395-2.12-2.864-9.313-1.809-11.144-1.395M60.693 44.99c-1.25-1.22-2.768-2.13-4.433-2.655 1.774.254 3.37 1.21 4.433 2.654"/>
        <path fill="#FC0" d="M53.59 37.933c-.25.142-.337.46-.195.71l.797 1.407c.142.25.46.336.71.195.248-.142.336-.457.197-.707l-.8-1.408c-.141-.25-.459-.339-.71-.197"/>
        <path fill="#EDEDED" d="M45.242 25.02c-.435 0-.845.599-.926 1.34-.08.74.223 1.34.658 1.34.435 0 .843-.6.926-1.34.083-.741-.222-1.34-.658-1.34"/>
        <path fill="#C6C6C6" d="M45.02 27.7c.42-.032.812-.618.88-1.34.059-.618-.139-1.143-.46-1.297-.42.03-.812.617-.88 1.34-.058.617.14 1.142.46 1.296"/>
        <path fill="#C6C6C6" d="M45.113 26.36s1.191.456 1.336.743c.214.6.362 1.221.442 1.853-.04.095-.21.046-.25.046-.04 0-.207-1.216-.395-1.636-.189-.42-1.21-.775-1.21-.775l.077-.231z"/>
        <path fill="url(#prefix__a)" fill-rule="nonzero" d="M23.637 53.179c-3.278.002-6.203-2.06-7.303-5.147-1.1-3.087-.14-6.533 2.4-8.605V21.479c0-2.991 2.11-5.248 4.903-5.248 2.794 0 4.905 2.254 4.905 5.248v17.948c2.54 2.072 3.502 5.519 2.4 8.607-1.101 3.088-4.027 5.148-7.305 5.145z"/>
        <path fill="url(#prefix__b)" fill-rule="nonzero" d="M23.637 52.494c-3.048.002-5.753-1.95-6.711-4.843-.958-2.893.047-6.074 2.494-7.891V21.479c0-2.602 1.812-4.562 4.217-4.562 2.405 0 4.22 1.96 4.22 4.562V39.76c2.447 1.817 3.452 5 2.494 7.893-.96 2.893-3.666 4.845-6.714 4.84z"/>
        <path fill="url(#prefix__c)" fill-rule="nonzero" d="M25.804 40.905V21.48c0-1.574-.97-2.51-2.161-2.51-1.192 0-2.16.926-2.16 2.51v19.426c-2.118 1.01-3.253 3.35-2.736 5.638.518 2.288 2.55 3.912 4.896 3.912 2.345 0 4.378-1.624 4.896-3.912.517-2.287-.618-4.628-2.735-5.638z"/>
        <path fill="url(#prefix__d)" fill-rule="nonzero" d="M25.804 40.905V21.61h-4.322v19.284c-2.117 1.01-3.252 3.35-2.735 5.638.518 2.288 2.55 3.912 4.896 3.912 2.345 0 4.378-1.624 4.896-3.912.517-2.287-.618-4.628-2.735-5.638v.012z"/>
        <path fill="url(#prefix__e)" fill-rule="nonzero" d="M23.495 40.44c0 .354-.288.641-.642.641-.349-.008-.627-.293-.627-.642V20.683c.013-.336.282-.605.617-.618.35-.005.638.27.652.618v19.756z" style="mix-blend-mode:screen"/>
        <path fill="url(#prefix__f)" fill-rule="nonzero" d="M25.52 46.539c0 1.606-1.302 2.908-2.908 2.908-1.606 0-2.908-1.302-2.908-2.908 0-1.606 1.302-2.908 2.908-2.908 1.606 0 2.908 1.302 2.908 2.908z" style="mix-blend-mode:screen"/>
        <path fill="url(#prefix__g)" fill-rule="nonzero" d="M17.367 19.355H8.045V18.8h9.322v.555zm0 1.355h-6.871v.56h6.871v-.56zm0 1.914h-6.871v.556h6.871v-.556zm0 1.911h-6.871v.559h6.871v-.559zm0 1.911h-6.871v.559h6.871v-.559zm0 1.914H8.045v.556h9.322v-.556zm0 1.91h-6.871v.56h6.871v-.56zm0 1.915h-6.871v.555h6.871v-.555zm0 1.91h-6.871v.56h6.871v-.56zm0 1.911h-6.871v.559h6.871v-.559zm0 1.914H8.045v.556h9.322v-.556z"/>
    </g>
</svg>
