<svg xmlns="http://www.w3.org/2000/svg" width="60" height="60" viewBox="0 0 60 60">
    <g fill="none">
        <circle cx="29.992" cy="29.861" r="29.813" fill="#A41F26"/>
        <path fill="#F9D3B7" d="M51.79 10.785L38.066 30.179s.757 4.344-4.164 8.882c-4.921 4.537-5.756 8.142-5.98 11.178.048 2.03-3.736 2.03.161-8.262-5.012 7.006-3 10.87-4.094 11.241-1.094.371-2.924-3.403.663-10.474-4.616 6.015-3.108 11.183-4.387 11.463-1.883.413-2.198-8.199 3.131-13.725-6.302 4.538-4.847 10.55-6.763 11.201-1.916.65-.966-9.58 7.595-16.53-3.832 1.066-5.468 6.32-7.058 5.579-1.591-.741 4.154-10.714 15.506-14.04 4.762-9.453 7.107-15.907 7.107-15.907h12.005z"/>
        <path fill="#F9C4A0" d="M29.904 10.785h-8.899c-.066 4.167-.207 8.544-.489 12.191-9.24 7.39-10.767 18.795-9.013 18.873 1.755.078 1.279-5.4 4.415-7.843-5.294 9.676-2.27 19.505-.757 18.176 1.513-1.328-2.102-6.332 2.002-12.93-2.818 7.135.736 14.987 2.324 13.888 1.077-.743-2.269-4.95-.295-12.27-.63 7.904 2.494 10.702 3.366 9.943.872-.758-2.455-3.57-.482-11.954.303 10.999 3.802 9.565 2.99 7.704-.948-2.892-1.553-6.54 1.286-12.605 2.839-6.066.48-9.797.48-9.797l3.072-13.376z"/>
        <path fill="#A3D3E7" d="M32.067 34.676c-1.137-.668-3.809-1.172-4.432-2.415-.88-1.764 1.162-3.161 2.189-4.273.667-.66 1.12-1.506 1.298-2.427.103-.666-.063-1.412-.58-1.843-2.297-1.916-2.902 4.51-5.216 4.081-1.008-.184-1.298-2.017-1.568-2.786-.682-1.986-1.368-3.972-2.057-5.957l-2.854-8.271h-8.682l7.197 20.844c-1.192 1.752-3.708 2.034-5.327 3.295-1.18.92-2.105 3.08-1.817 4.57.554 2.849 3.57 1.18 4.926 0 1.046-.9 2.251-1.765 3.698-1.26 1.916.673 1.825 2.347 1.553 4.061-.37 2.334 1.78 5.355 4.104 3.096 1.495-1.45.99-4.79.666-6.615-.202-1.15.872-1.599 1.87-1.558 1.052.038 2.074.36 2.957.932.83.55 1.478 1.644 2.542 1.765.756.08 1.512-.476 1.784-1.197.706-1.85-.789-3.172-2.25-4.042z" opacity=".5"/>
    </g>
</svg>
