<svg xmlns="http://www.w3.org/2000/svg" width="71" height="71" viewBox="0 0 71 71">
    <g fill="none">
        <circle cx="35.491" cy="35.336" r="35.279" fill="#A41F26"/>
        <path fill="#FCD5AF" stroke="#FFF" stroke-width=".26" d="M36.395 13.034c-.005-1.686-1.37-3.05-3.055-3.055h0c-1.682.008-3.042 1.372-3.046 3.055v16.858c0 .344-.279.623-.623.623-.345 0-.624-.28-.624-.623V16.425c-.003-1.682-1.363-3.046-3.045-3.054h0c-1.686.005-3.05 1.37-3.055 3.054v16.277h0v7.494l-4.272-6.146c-1.108-1.591-3.295-1.984-4.887-.877h0c-1.592 1.108-1.991 3.293-.895 4.893l7.936 11.413c4.284 6.167 8.129 9.714 16.02 9.845 7.77.116 14.202-6.3 14.202-14.057v-6.843h0V19.722c-.004-1.673-1.35-3.032-3.022-3.055h0c-1.685.005-3.05 1.37-3.054 3.055v10.17c-.023.325-.293.577-.62.577-.325 0-.596-.252-.618-.577V15.253c-.009-1.684-1.371-3.047-3.055-3.055h0c-1.684.008-3.047 1.371-3.055 3.055v14.639c-.023.325-.293.577-.619.577s-.596-.252-.619-.577l.006-16.858z"/>
        <path fill="#E6302B" d="M26.613 44.527c-.007 2.62 1.03 5.134 2.882 6.987 1.84 1.854 4.344 2.896 6.957 2.896 2.612 0 5.116-1.042 6.956-2.896 2.82-2.824 3.665-7.065 2.143-10.754-1.522-3.688-5.112-6.1-9.102-6.113-5.447.011-9.853 4.434-9.845 9.88h.01zm13.723 6.146c-2.856 1.822-6.596 1.408-8.983-.997-2.393-2.413-2.809-6.157-1.002-9.036l9.985 10.033zm-3.878-13.425c1.918-.002 3.756.765 5.104 2.13 2.394 2.413 2.809 6.157 1.002 9.036l-9.988-10.032c1.156-.74 2.5-1.13 3.873-1.128l.009-.006z"/>
    </g>
</svg>
