<svg xmlns="http://www.w3.org/2000/svg" width="70" height="70" viewBox="0 0 70 70">
    <g fill="none">
        <circle cx="34.991" cy="34.838" r="34.782" fill="#A41F26"/>
        <path fill="#B88E64" d="M65.776 35.941l-.658 5.691-31.62-.685-1.177-.026-16.6-.412-.665-5.803 21.43.53c-1.43 4.411 8.061 4.743 7.111.17l22.18.535z"/>
        <path fill="#CD9D67" d="M61.6 41.635l-.665 5.691-49.397-1.064-.664-5.883 4.835.118v.053l16.594.359c-1.427 4.412 8.056 4.75 7.106.176l22.191.55z"/>
        <path fill="#B88E64" d="M57.891 25.644l-.63 4.785-46.693-.882-.633-4.932 20.265.44c-1.35 3.716 7.615 3.995 6.718.15l20.973.44z"/>
        <path fill="#CD9D67" d="M55.515 30.63l-.627 4.776-46.7-.882-.626-4.933 20.264.444c-1.352 3.71 7.6 3.989 6.712.147l20.977.447z"/>
        <path fill="#A87F58" d="M43.597 35.397c.95 4.574-8.53 4.244-7.112-.17l7.112.17z"/>
        <path fill="#BD8C5C" d="M39.412 41.097c.95 4.574-8.53 4.238-7.106-.176l1.176.026 5.918.144.012.006z"/>
        <path fill="#A87F58" d="M36.918 25.191c.882 3.844-8.068 3.565-6.718-.15l6.718.15z"/>
        <path fill="#BD8C5C" d="M34.538 30.174c.883 3.84-8.064 3.561-6.712-.148l6.712.148z"/>
        <path fill="#A67B54" d="M57.244 30.415c.044-.803.068-1.612.132-2.415l.168-2.409.377.438c-1.003.033-2.003.086-3.003.103l-3 .047-5.997.083-5.997-.027-5.995-.094-5.988-.167-5.991-.236-5.988-.34c-1.997-.116-3.994-.227-5.988-.41l.397-.444.167 2.485c.062.827.083 1.66.13 2.489h-.115l-.638-4.93v-.076h.076L33.953 25l23.988.588h.074v.074l-.662 4.767-.109-.014z"/>
        <path fill="#C99D73" d="M30.265 25.047c-.159.398-.174.84-.041 1.247.156.399.44.734.808.953.744.432 1.59.653 2.45.641.86.041 1.715-.147 2.477-.547.378-.205.686-.52.882-.903.172-.393.206-.832.097-1.247h.056c.214.43.256.924.118 1.383-.18.47-.5.875-.918 1.158-1.666 1.017-3.77.978-5.397-.1-.418-.296-.717-.73-.844-1.226-.095-.473.002-.964.27-1.365l.042.006z"/>
        <path fill="#A67B54" d="M65.097 41.618c.041-.956.068-1.912.135-2.868l.17-2.862.404.462c-2.118.088-4.232.088-6.347.112-2.115.023-4.23.053-6.344.05l-6.35-.041-6.341-.118-6.342-.194-6.332-.277c-2.112-.097-4.224-.24-6.335-.358-2.112-.118-4.224-.227-6.336-.415l.433-.47.167 2.94c.065.986.092 1.971.133 2.956h-.115l-.673-5.83v-.076h.076l25.365.589 25.353.664h.064v.074l-.673 5.688-.112-.026z"/>
        <path fill="#C99D73" d="M36.526 35.218c-.107.458-.088.937.056 1.385.153.422.432.787.8 1.044.765.499 1.66.76 2.574.753.912.045 1.817-.177 2.606-.638.384-.236.691-.58.882-.988.185-.434.253-.909.2-1.377.165.473.186.985.062 1.47-.152.503-.462.943-.882 1.257-1.74 1.173-4.03 1.12-5.715-.13-.403-.337-.682-.8-.791-1.315-.083-.497-.01-1.007.208-1.461z"/>
        <path fill="#C79B72" d="M15.756 40.485l1.547-.147 1.547-.106 3.094-.206c2.059-.097 4.118-.179 6.177-.217 2.058-.038 4.117-.044 6.176-.068l6.177.07 6.176.2c2.059.113 4.118.18 6.176.336 2.06.156 4.118.294 6.177.485l3.07.344 1.542.171 1.54.215v.144L40.45 41.24l-24.706-.603.012-.153zM10.606 29.453l1.47-.153 1.471-.109 2.924-.217c1.95-.103 3.897-.195 5.844-.239 1.947-.044 3.894-.059 5.84-.088l5.84.047 5.834.18c1.945.102 3.892.164 5.833.314 1.94.15 3.888.294 5.832.462l2.912.326 1.47.168 1.456.206v.144l-23.35-.38-23.347-.517-.03-.144z"/>
        <path fill="#E9D9A6" d="M10.57 29.674l44.945.982-.618 4.744h.056l.785-4.762.033-.197h-.215c-1.994-.12-3.994-.2-5.991-.276l-5.991-.236-11.986-.34-11.99-.177-5.995-.03h-3.059l.027.292z" style="mix-blend-mode:multiply"/>
        <path fill="#EFB67D" d="M31.58 30l-23.977-.476h-.08v.076l.636 4.93h.115c-.045-.83-.065-1.662-.13-2.489L8.021 30c1.853.159 3.705.27 5.558.374l5.992.344 5.99.235 5.992.168 5.997.094 5.994.023 6-.082 3-.044c.865-.015 1.73-.056 2.594-.091L55 32.979c-.062.803-.085 1.61-.132 2.415l.114.015.77-4.935L31.58 30z"/>
        <path fill="#DCC394" d="M15.185 35.538c1.565.162 3.13.294 4.706.41 1.941.173 3.888.237 5.833.352l5.835.191c1.947 0 3.891.041 5.838.033 1.947-.01 3.894-.036 5.841-.13 3.897-.138 7.794-.38 11.697-.906v-.167l-23.347-.536-16.52-.259.117 1.012z" style="mix-blend-mode:multiply"/>
        <path fill="#E0A163" d="M8.235 34.435l1.47-.153 1.471-.111 2.924-.215c1.95-.103 3.897-.197 5.844-.238 1.947-.042 3.894-.06 5.841-.089l5.839.047 5.838.18c1.944.103 3.888.165 5.832.312s3.885.294 5.83.464l2.914.327 1.47.165 1.457.208v.144l-23.35-.379-23.38-.52v-.142z"/>
        <path fill="#EFB67D" d="M27.862 30.018c-.235.809.134 1.67.882 2.058.727.377 1.535.57 2.353.562.82.037 1.636-.125 2.38-.473.358-.177.659-.45.867-.791.2-.371.276-.795.22-1.212.17.424.182.895.033 1.326-.174.438-.483.809-.882 1.06-.79.469-1.7.699-2.618.66-.92.006-1.82-.26-2.588-.764-.396-.264-.688-.657-.827-1.112-.107-.445-.043-.914.18-1.314z"/>
        <path fill="#E9D9A6" d="M61.956 41.632l.044-.294-.353-.023c-2.109-.156-4.223-.247-6.335-.356-2.112-.109-4.224-.224-6.338-.294l-12.677-.418-12.685-.206c-2.115-.023-4.23 0-6.344 0h-1.612l.044.53 20.588.535 25.294.588.056-.05.318-.012z" style="mix-blend-mode:multiply"/>
        <path fill="#EFB67D" d="M60.935 47.318c.06-.953.106-1.91.183-2.862l.211-2.859.295.347c-2.115.053-4.23.038-6.348.044-2.117.006-4.229.018-6.344 0l-12.682-.203-12.68-.417c-2.111-.08-4.223-.206-6.335-.294-2.111-.089-4.226-.195-6.338-.35l.324-.353c.138 1.964.294 3.926.39 5.897h-.085l-.67-5.865v-.059h.059l25.364.588 25.362.656h.056v.053l-.673 5.688-.089-.011z"/>
        <path fill="#926743" d="M11.58 46.212l24.705.49 24.706.59v.06c-2.059.122-4.117.145-6.176.222l-6.177.067c-2.059.044-4.117-.017-6.176-.03l-6.177-.067-6.176-.2c-2.059-.076-4.118-.1-6.177-.235l-6.176-.335c-2.059-.165-4.118-.28-6.177-.489v-.073z"/>
        <path fill="#E0A163" d="M11.58 46.176c4.117-.514 8.252-.74 12.373-.864 2.059-.091 4.118-.074 6.176-.11l6.177.057c2.059.073 4.118.123 6.176.215 2.06.09 4.118.197 6.177.376 4.117.294 8.235.703 12.326 1.394v.17l-24.706-.45-24.705-.62.005-.168z"/>
        <path fill="#EFB67D" d="M32.353 40.915c-.108.459-.088.939.056 1.388.154.419.433.78.8 1.035.765.499 1.66.76 2.573.753.912.045 1.817-.176 2.606-.635.384-.238.69-.582.883-.991.184-.434.253-.908.2-1.377.164.474.186.985.061 1.47-.152.503-.461.943-.882 1.257-1.74 1.174-4.031 1.12-5.715-.133-.404-.335-.683-.797-.79-1.311-.082-.496-.01-1.004.208-1.456z"/>
    </g>
</svg>
